<svg xmlns="http://www.w3.org/2000/svg" viewBox="0 0 24 24" fill="none" stroke="#c4a050" stroke-width="1.6" stroke-linecap="round" stroke-linejoin="round" aria-hidden="true">
  <!-- main speech bubble (rounded with tail bottom-left) -->
  <path d="M4 4 L17 4 A2 2 0 0 1 19 6 L19 14 A2 2 0 0 1 17 16 L10 16 L6 19.5 L6 16 L4 16 A2 2 0 0 1 2 14 L2 6 A2 2 0 0 1 4 4 Z"/>
  <!-- message dots -->
  <circle cx="7.5"  cy="10" r="0.8" fill="#c4a050" stroke="none"/>
  <circle cx="10.5" cy="10" r="0.8" fill="#c4a050" stroke="none"/>
  <circle cx="13.5" cy="10" r="0.8" fill="#c4a050" stroke="none"/>
  <!-- secondary bubble peeking out top-right -->
  <path d="M14 5 L20.5 5 A1.5 1.5 0 0 1 22 6.5 L22 10.5 A1.5 1.5 0 0 1 20.5 12 L19 12"/>
</svg>
