<svg xmlns="http://www.w3.org/2000/svg" viewBox="0 0 24 24" fill="none" stroke="#c4a050" stroke-width="1.6" stroke-linecap="round" stroke-linejoin="round" aria-hidden="true">
  <!-- back bubble -->
  <path d="M8 3 L20 3 A2 2 0 0 1 22 5 L22 11 A2 2 0 0 1 20 13 L16.5 13 L13 16 L13 13 L8 13 A2 2 0 0 1 6 11 L6 5 A2 2 0 0 1 8 3 Z"/>
  <!-- front overlapping bubble -->
  <path d="M4 9 L14 9 A2 2 0 0 1 16 11 L16 17 A2 2 0 0 1 14 19 L11 19 L7.5 22 L7.5 19 L4 19 A2 2 0 0 1 2 17 L2 11 A2 2 0 0 1 4 9 Z" fill="var(--app-bg-secondary, #070c18)"/>
  <!-- dots in front bubble -->
  <circle cx="6"  cy="14" r="0.8" fill="#c4a050" stroke="none"/>
  <circle cx="9"  cy="14" r="0.8" fill="#c4a050" stroke="none"/>
  <circle cx="12" cy="14" r="0.8" fill="#c4a050" stroke="none"/>
</svg>
